<?xml version="1.0" standalone="no"?>
<!DOCTYPE svg PUBLIC "-//W3C//DTD SVG 20010904//EN"
 "http://www.w3.org/TR/2001/REC-SVG-20010904/DTD/svg10.dtd">
<svg version="1.0" xmlns="http://www.w3.org/2000/svg"
 width="643.000000pt" height="126.000000pt" viewBox="0 0 643.000000 126.000000"
 preserveAspectRatio="xMidYMid meet">

<g transform="translate(0.000000,126.000000) scale(0.100000,-0.100000)"
fill="#000000" stroke="none">
<path d="M5713 1115 c-182 -49 -286 -219 -286 -465 0 -219 75 -370 220 -442
55 -27 80 -33 153 -36 218 -11 364 116 407 352 29 159 -1 330 -77 444 -88 132
-254 190 -417 147z m206 -115 c113 -57 172 -248 141 -455 -31 -208 -146 -307
-304 -261 -133 39 -208 232 -176 456 20 143 65 225 144 261 56 25 145 25 195
-1z"/>
<path d="M240 651 l0 -461 70 0 70 0 2 172 3 173 125 7 c206 10 305 59 372
183 17 31 22 57 22 120 1 131 -49 206 -161 242 -35 11 -109 17 -275 20 l-228
5 0 -461z m404 338 c143 -36 155 -232 18 -307 -46 -26 -208 -50 -255 -38 l-27
6 0 169 c0 92 3 171 7 174 10 11 210 8 257 -4z"/>
<path d="M1090 1055 l0 -55 120 0 120 0 0 -350 0 -349 -117 -3 -118 -3 -3 -52
-3 -53 316 0 316 0 -3 53 -3 52 -117 3 -118 3 0 349 0 350 120 0 120 0 0 55 0
55 -315 0 -315 0 0 -55z"/>
<path d="M1890 1104 c0 -4 72 -105 160 -226 88 -120 160 -221 160 -223 0 -2
-79 -106 -175 -230 -96 -125 -175 -228 -175 -231 0 -2 30 -4 68 -4 l67 1 138
179 c76 99 142 180 147 180 4 0 67 -81 139 -180 l132 -180 79 0 c44 0 80 3 80
6 0 4 -76 112 -170 240 -93 129 -170 236 -170 239 0 5 89 121 248 325 l82 105
-67 3 c-57 3 -70 0 -83 -16 -8 -11 -64 -83 -124 -160 -60 -78 -114 -146 -120
-151 -7 -6 -50 45 -132 158 l-120 166 -82 3 c-45 2 -82 0 -82 -4z"/>
<path d="M2887 1103 c-4 -3 -7 -210 -7 -460 l0 -453 331 0 330 0 -3 53 -3 52
-252 3 -253 2 0 160 0 160 200 0 200 0 0 50 0 50 -200 0 -200 0 0 140 0 140
235 0 235 0 0 55 0 55 -303 0 c-167 0 -307 -3 -310 -7z"/>
<path d="M3770 650 l0 -460 321 0 320 0 -3 53 -3 52 -247 3 -248 2 0 405 0
405 -70 0 -70 0 0 -460z"/>
<path d="M4650 650 l0 -460 321 0 320 0 -3 53 -3 52 -242 3 -243 2 0 405 0
405 -75 0 -75 0 0 -460z"/>
</g>
</svg>
